<?xml version="1.0" encoding="UTF-8"?>
<svg width="492px" height="53px" viewBox="0 0 492 53" version="1.1" xmlns="http://www.w3.org/2000/svg" xmlns:xlink="http://www.w3.org/1999/xlink">
    <!-- Generator: Sketch 58 (84663) - https://sketch.com -->
    <title>Group 2</title>
    <desc>Created with Sketch.</desc>
    <g id="🔄-Symbols" stroke="none" stroke-width="1" fill="none" fill-rule="evenodd">
        <g id="Atoms-/-Images-/-Logo-/-Black" fill="#111111" fill-rule="nonzero">
            <g id="Group-2">
                <path d="M291.202578,16.5311178 C291.202578,8.02171198 284.265053,0.901596885 275.593148,0.901596885 L258.596214,0.901596885 L258.596214,52.3053546 L264.319671,52.3053546 L264.319671,32.1606388 L277.154091,32.1606388 L286.346311,52.479016 L292.590083,52.479016 L282.357234,30.5976867 C287.560377,27.9927665 291.202578,22.6092648 291.202578,16.5311178 Z M275.593148,26.4298144 L264.146233,26.4298144 L264.146233,6.63242123 L275.593148,6.63242123 C280.96973,6.63242123 285.47912,10.9739548 285.47912,16.5311178 C285.47912,22.0882808 280.96973,26.4298144 275.593148,26.4298144 L275.593148,26.4298144 Z M88.6268715,36.6758337 C88.6268715,44.3169328 83.4237283,47.442837 77.1799566,47.442837 C70.9361848,47.442837 65.7330417,44.3169328 65.7330417,36.6758337 L65.7330417,0.901596885 L60.0095842,0.901596885 L60.0095842,36.6758337 C60.0095842,46.7481916 66.9471084,53 77.1799566,53 C87.2393666,53 94.3503289,46.7481916 94.3503289,36.6758337 L94.3503289,0.901596885 L88.6268715,0.901596885 L88.6268715,36.6758337 Z M35.0344971,40.4963833 L27.4032205,0.901596885 L20.4656963,0.901596885 L12.8344197,40.4963833 L5.72345745,0.901596885 L0,0.901596885 L9.88597196,52.3053546 L15.9563056,52.3053546 L24.1078965,12.5369069 L32.2594875,52.3053546 L38.3298211,52.3053546 L48.2157931,0.901596885 L42.4923356,0.901596885 L35.0344971,40.4963833 L35.0344971,40.4963833 Z M139.270798,40.4963833 L116.030092,0.901596885 L110.653511,0.901596885 L110.653511,52.3053546 L116.376968,52.3053546 L116.376968,12.7105683 L139.617674,52.3053546 L144.994255,52.3053546 L144.994255,0.901596885 L139.270798,0.901596885 L139.270798,40.4963833 L139.270798,40.4963833 Z M194.94443,35.6338656 L194.94443,17.5730859 C194.94443,8.36903467 187.486591,0.901596885 178.294372,0.901596885 L161.297437,0.901596885 L161.297437,52.3053546 L178.294372,52.3053546 C187.486591,52.3053546 194.94443,44.8379168 194.94443,35.6338656 Z M167.020895,6.63242123 L178.46781,6.63242123 C184.538143,6.63242123 189.39441,11.4949389 189.39441,17.5730859 L189.39441,35.6338656 C189.39441,41.7120127 184.538143,46.5745303 178.46781,46.5745303 L167.020895,46.5745303 L167.020895,6.63242123 Z M424.480567,1.77635684e-14 C429.336834,1.77635684e-14 433.325911,1.38929075 436.447796,4.16787225 C439.569682,6.94645375 440.957187,10.7670033 440.957187,15.4558596 L440.957187,16.671489 L435.23373,16.671489 L435.23373,15.2821982 C435.23373,12.3299554 434.193101,9.89869659 432.285282,7.98842181 C430.377463,6.07814703 427.775891,5.20984031 424.307129,5.20984031 C421.011805,5.20984031 418.236795,6.25180837 416.328976,8.3357445 C414.421157,10.4196806 413.380529,13.0246008 413.380529,16.150505 L413.380529,36.8162049 C413.380529,39.9421091 414.421157,42.5470292 416.328976,44.6309653 C418.236795,46.7149015 420.838367,47.7568695 424.307129,47.7568695 C427.602453,47.7568695 430.377463,46.8885628 432.285282,44.978288 C434.193101,43.0680132 435.23373,40.8104158 435.23373,37.6845116 L435.23373,35.7742368 L441.130625,35.7742368 L441.130625,37.3371889 C441.130625,42.0260452 439.569682,45.8465947 436.621235,48.6251762 C433.499349,51.4037577 429.68371,52.7930485 424.654005,52.7930485 C419.6243,52.7930485 415.635224,51.2300964 412.513338,48.2778536 C409.391452,45.3256107 407.830509,41.3313998 407.830509,36.2952208 L407.830509,16.3241663 C407.830509,11.2879873 409.391452,7.29377644 412.3399,4.34153359 C415.461786,1.38929075 419.450862,1.77635684e-14 424.480567,1.77635684e-14 Z M243.507099,0.901596885 L243.507099,6.63242123 L217.838259,6.63242123 L217.838259,23.6512329 L240.732089,23.6512329 L240.732089,29.3820573 L217.838259,29.3820573 L217.838259,46.5745303 L243.507099,46.5745303 L243.507099,52.3053546 L212.114802,52.3053546 L212.114802,0.901596885 L243.507099,0.901596885 Z M300.296182,6.68120905 L318.680621,6.68120905 L318.680621,52.3541424 L324.404078,52.3541424 L324.404078,6.68120905 L342.615079,6.68120905 L342.615079,0.950384709 L300.296182,0.950384709 L300.296182,6.68120905 Z M486.276543,23.8736821 L463.903027,23.8736821 L463.903027,0.950384709 L458.17957,0.950384709 L458.17957,52.3541424 L463.903027,52.3541424 L463.903027,29.6045064 L486.276543,29.6045064 L486.276543,52.3541424 L492,52.3541424 L492,0.950384709 L486.276543,0.950384709 L486.276543,23.8736821 Z" id="Shape-Copy-2"></path>
                <rect id="Rectangle" x="358" y="1" width="35" height="6"></rect>
                <rect id="Rectangle-Copy" x="358" y="23.5" width="35" height="6"></rect>
                <rect id="Rectangle-Copy-2" x="358" y="46" width="35" height="6"></rect>
            </g>
        </g>
    </g>
</svg>